<?xml version="1.0" encoding="iso-8859-1"?>
<!-- Generator: Adobe Illustrator 19.0.0, SVG Export Plug-In . SVG Version: 6.00 Build 0)  -->
<svg version="1.1" id="Capa_1" xmlns="http://www.w3.org/2000/svg" xmlns:xlink="http://www.w3.org/1999/xlink" x="0px" y="0px"
	 viewBox="0 0 512 512" style="enable-background:new 0 0 512 512;" xml:space="preserve">
<rect x="227.68" y="402.25" style="fill:#C3C8D1;" width="108.74" height="60.784"/>
<rect x="227.68" y="402.25" style="fill:#B0B3B7;" width="20.605" height="60.784"/>
<path style="fill:#707487;" d="M479.277,17.314H84.813c-18.044,0-32.722,14.679-32.722,32.722v183.407V373.35
	c0,18.044,14.679,32.722,32.722,32.722h67.658c7.304,0,322.224,0,326.807,0c18.043,0,32.722-14.679,32.722-32.722
	c0-4.055,0-316.129,0-323.315C511.999,31.993,497.321,17.314,479.277,17.314z"/>
<path style="fill:#5E6377;" d="M72.695,373.35V233.443V50.036c0-18.043,14.679-32.722,32.722-32.722H84.813
	c-18.044,0-32.722,14.679-32.722,32.722v183.407V373.35c0,18.044,14.679,32.722,32.722,32.722h20.605
	C87.374,406.073,72.695,391.394,72.695,373.35z"/>
<path style="fill:#E4EAF8;" d="M88.448,106.356v127.087V366.79c0,1.615,1.309,2.924,2.924,2.924h61.097c3.21,0,316.487,0,320.246,0
	c1.615,0,2.924-1.309,2.924-2.924c0-9.82,0-249.628,0-260.435L88.448,106.356L88.448,106.356z"/>
<path style="fill:#D8DCE5;" d="M109.053,366.79V233.443V106.356H88.448v127.087V366.79c0,1.615,1.309,2.924,2.924,2.924h20.605
	C110.363,369.715,109.053,368.406,109.053,366.79z"/>
<path style="fill:#00C3FF;" d="M472.717,53.672H150.41v54.744h325.231V56.597C475.641,54.981,474.332,53.672,472.717,53.672z"/>
<path style="fill:#FF5050;" d="M152.47,53.672H91.373c-1.615,0-2.925,1.31-2.925,2.925v51.819h64.022V53.672z"/>
<path style="fill:#ED3A3A;" d="M111.978,53.672H91.373c-1.615,0-2.924,1.31-2.924,2.925v51.819h20.605V56.597
	C109.053,54.981,110.363,53.672,111.978,53.672z"/>
<path style="fill:#E4EAF8;" d="M369.541,494.686H194.548c-6.87,0-12.439-5.569-12.439-12.439V470.09
	c0-6.87,5.569-12.439,12.439-12.439h174.993c6.87,0,12.439,5.569,12.439,12.439v12.157
	C381.98,489.117,376.411,494.686,369.541,494.686z"/>
<path style="fill:#D8DCE5;" d="M369.165,474.081H194.924c-5.454,0-10.1-3.413-11.95-8.215c-0.551,1.429-0.865,2.977-0.865,4.6
	v11.405c0,7.078,5.737,12.815,12.815,12.815h174.241c7.077,0,12.815-5.737,12.815-12.815v-11.405c0-1.624-0.314-3.171-0.865-4.6
	C379.265,470.668,374.619,474.081,369.165,474.081z"/>
<path style="fill:#E4EAF8;" d="M133.189,494.686H19.282C8.677,494.686,0,486.009,0,475.404v-222.68
	c0-10.605,8.677-19.282,19.282-19.282h113.907c10.605,0,19.282,8.677,19.282,19.282v222.68
	C152.47,486.009,143.793,494.686,133.189,494.686z"/>
<path style="fill:#D8DCE5;" d="M23.978,474.821V253.307c0-10.926,8.939-19.865,19.865-19.865H19.865
	C8.939,233.443,0,242.382,0,253.307v221.514c0,10.926,8.939,19.865,19.865,19.865h23.978
	C32.917,494.686,23.978,485.747,23.978,474.821z"/>
<rect y="318.75" style="fill:#5BDDFC;" width="152.47" height="119.51"/>
<g>
	<rect y="318.75" style="fill:#00C3FF;" width="23.978" height="119.51"/>
	<rect x="31.23" y="286.77" style="fill:#00C3FF;" width="121.25" height="34.34"/>
</g>
<rect y="286.77" style="fill:#FF5050;" width="34.68" height="34.34"/>
<rect y="286.77" style="fill:#ED3A3A;" width="23.978" height="34.34"/>
<g>
	<path style="fill:#C3C8D1;" d="M81.332,474.165H71.139c-4.267,0-7.727-3.459-7.727-7.727c0-4.268,3.459-7.727,7.727-7.727h10.193
		c4.267,0,7.727,3.459,7.727,7.727C89.058,470.706,85.599,474.165,81.332,474.165z"/>
	<path style="fill:#C3C8D1;" d="M81.332,268.741H71.139c-4.267,0-7.727-3.459-7.727-7.727c0-4.268,3.459-7.727,7.727-7.727h10.193
		c4.267,0,7.727,3.459,7.727,7.727C89.058,265.283,85.599,268.741,81.332,268.741z"/>
	<path style="fill:#C3C8D1;" d="M420.997,196.961H142.82c-6.6,0-12-5.4-12-12v-18.607c0-6.6,5.4-12,12-12h278.177
		c6.6,0,12,5.4,12,12v18.607C432.997,191.561,427.597,196.961,420.997,196.961z"/>
</g>
<path style="fill:#B0B3B7;" d="M420.634,176.044h-277.45c-6.285,0-11.503-4.756-12.259-10.845c-0.062,0.499-0.104,1.003-0.104,1.518
	v17.881c0,6.8,5.563,12.363,12.363,12.363h277.45c6.8,0,12.363-5.563,12.363-12.363v-17.881c0-0.515-0.042-1.019-0.104-1.518
	C432.137,171.288,426.919,176.044,420.634,176.044z"/>
<path style="fill:#C3C8D1;" d="M164.47,330.787h123.367c6.6,0,12-5.4,12-12v-76.551c0-6.6-5.4-12-12-12H164.47c-6.6,0-12,5.4-12,12
	v76.551C152.47,325.387,157.87,330.787,164.47,330.787z"/>
<path style="fill:#B0B3B7;" d="M173.568,318.424v-75.825c0-6.8,5.563-12.363,12.363-12.363h-21.097
	c-6.8,0-12.363,5.563-12.363,12.363v75.825c0,6.8,5.563,12.363,12.363,12.363h21.097
	C179.131,330.787,173.568,325.224,173.568,318.424z"/>
<g>
	<path style="fill:#C3C8D1;" d="M422.493,248.153h-85.267c-4.267,0-7.727-3.459-7.727-7.727s3.459-7.727,7.727-7.727h85.267
		c4.267,0,7.727,3.459,7.727,7.727S426.761,248.153,422.493,248.153z"/>
	<path style="fill:#C3C8D1;" d="M422.493,288.239h-85.267c-4.267,0-7.727-3.459-7.727-7.727c0-4.268,3.459-7.727,7.727-7.727h85.267
		c4.267,0,7.727,3.459,7.727,7.727S426.761,288.239,422.493,288.239z"/>
	<path style="fill:#C3C8D1;" d="M422.493,328.326h-85.267c-4.267,0-7.727-3.459-7.727-7.727c0-4.268,3.459-7.727,7.727-7.727h85.267
		c4.267,0,7.727,3.459,7.727,7.727C430.22,324.867,426.761,328.326,422.493,328.326z"/>
</g>
<g>
</g>
<g>
</g>
<g>
</g>
<g>
</g>
<g>
</g>
<g>
</g>
<g>
</g>
<g>
</g>
<g>
</g>
<g>
</g>
<g>
</g>
<g>
</g>
<g>
</g>
<g>
</g>
<g>
</g>
</svg>
