<?xml version="1.0" encoding="iso-8859-1"?>
<!-- Generator: Adobe Illustrator 19.0.0, SVG Export Plug-In . SVG Version: 6.00 Build 0)  -->
<svg version="1.1" id="Capa_1" xmlns="http://www.w3.org/2000/svg" xmlns:xlink="http://www.w3.org/1999/xlink" x="0px" y="0px"
	 viewBox="0 0 512.001 512.001" style="enable-background:new 0 0 512.001 512.001;" xml:space="preserve">
<path style="fill:#FEA832;" d="M62.523,203.327L2.525,113.329c-4.6-6.899-2.739-16.201,4.16-20.801
	c6.914-4.6,16.216-2.754,20.801,4.16l59.999,89.998c4.6,6.899,2.739,16.201-4.16,20.801
	C76.315,212.134,67.047,210.124,62.523,203.327z"/>
<path style="fill:#FE9923;" d="M428.677,207.487c-6.899-4.6-8.76-13.901-4.16-20.801l59.999-89.998
	c4.585-6.914,13.887-8.76,20.801-4.16c6.899,4.6,8.76,13.901,4.16,20.801l-59.999,89.998
	C444.954,210.124,435.686,212.134,428.677,207.487z"/>
<g>
	<path style="fill:#59422D;" d="M281.254,119.232c-7.852-2.607-12.1-11.104-9.478-18.97l29.999-89.998
		c2.607-7.852,11.03-12.129,18.97-9.478c7.852,2.607,12.1,11.104,9.478,18.97l-29.999,89.998
		C297.62,117.565,289.16,121.868,281.254,119.232z"/>
	<path style="fill:#59422D;" d="M372.252,119.232c-7.852-2.607-12.1-11.104-9.478-18.97l29.999-89.998
		c2.622-7.852,11.06-12.129,18.97-9.478c7.852,2.607,12.1,11.104,9.478,18.97l-29.999,89.998
		C388.618,117.565,380.158,121.868,372.252,119.232z"/>
</g>
<path style="fill:#FD4E26;" d="M432.002,180.008H80.639l-20.61,14.98c-0.01,0.99,0.08,2,0.28,3.02l55.189,277.995
	c4.2,20.7,22.5,35.999,44.109,35.999h192.786c21.61,0,39.909-15.3,44.109-35.999l55.189-277.995c0.2-1.02,0.29-2.03,0.28-3.03
	L432.002,180.008z"/>
<path style="fill:#FD3018;" d="M451.972,194.977c0.01,1-0.08,2.01-0.28,3.03l-55.189,277.995c-4.2,20.7-22.5,35.999-44.109,35.999
	h-96.388V180.008h175.997L451.972,194.977z"/>
<path style="fill:#FEA832;" d="M449.592,186.607l-59.999-89.998c-2.99-4.2-7.5-6.6-12.59-6.6H135.008c-5.1,0-9.61,2.4-12.6,6.6
	l-59.999,89.998c-1.5,2.7-2.4,5.4-2.4,8.4h391.992C452.002,192.007,451.092,189.307,449.592,186.607z"/>
<path style="fill:#E1E4FB;" d="M256.006,271.006c-41.409,0-74.999,33.599-74.999,74.999s33.589,74.999,74.999,74.999
	c41.399,0,74.999-33.599,74.999-74.999C331.004,304.605,297.405,271.006,256.006,271.006z"/>
<path style="fill:#C5C9F7;" d="M331.004,346.004c0,41.399-33.599,74.999-74.999,74.999V271.006
	C297.405,271.006,331.004,304.605,331.004,346.004z"/>
<path style="fill:#FE9923;" d="M452.002,195.007H256.006V90.009h120.998c5.09,0,9.6,2.4,12.59,6.6l59.999,89.998
	C451.092,189.307,452.002,192.007,452.002,195.007z"/>
<g>
</g>
<g>
</g>
<g>
</g>
<g>
</g>
<g>
</g>
<g>
</g>
<g>
</g>
<g>
</g>
<g>
</g>
<g>
</g>
<g>
</g>
<g>
</g>
<g>
</g>
<g>
</g>
<g>
</g>
</svg>
