<?xml version="1.0" encoding="iso-8859-1"?>
<!-- Generator: Adobe Illustrator 19.0.0, SVG Export Plug-In . SVG Version: 6.00 Build 0)  -->
<svg version="1.1" id="Capa_1" xmlns="http://www.w3.org/2000/svg" xmlns:xlink="http://www.w3.org/1999/xlink" x="0px" y="0px"
	 viewBox="0 0 512 512" style="enable-background:new 0 0 512 512;" xml:space="preserve">
<path style="fill:#FFBF64;" d="M294.627,394.241H49.484C22.155,394.241,0,372.086,0,344.757V142.484C0,115.155,22.155,93,49.484,93
	h201.845c27.329,0,49.484,22.155,49.484,49.484v245.571C300.813,391.471,298.044,394.241,294.627,394.241z"/>
<path style="fill:#F6AE4D;" d="M251.364,93h-30.905c27.31,0,49.449,22.17,49.449,49.519v245.532c0,3.419-2.767,6.19-6.181,6.19
	h30.905c3.414,0,6.181-2.771,6.181-6.19V142.519C300.813,115.17,278.674,93,251.364,93z"/>
<circle style="fill:#4A575E;" cx="113.87" cy="211.88" r="75"/>
<path style="fill:#3A4449;" d="M113.866,136.884c-5.283,0-10.436,0.553-15.411,1.592c34.027,7.108,59.589,37.27,59.589,73.408
	s-25.562,66.3-59.589,73.408c4.975,1.039,10.128,1.592,15.411,1.592c41.421,0,75-33.579,75-75
	C188.866,170.462,155.288,136.884,113.866,136.884z"/>
<rect x="295" y="326.41" style="fill:#FFBF64;" width="203.75" height="74.4"/>
<rect x="450.19" y="326.41" style="fill:#F6AE4D;" width="46.36" height="74.4"/>
<path style="fill:#FF7357;" d="M339.565,271.475h-58.154v-55.709h58.154c2.209,0,4,1.791,4,4v47.709
	C343.565,269.684,341.775,271.475,339.565,271.475z"/>
<g>
	<path style="fill:#4A575E;" d="M508,413.842h-22.905c-2.209,0-4-1.791-4-4V304.361c0-2.209,1.791-4,4-4H508c2.209,0,4,1.791,4,4
		v105.481C512,412.051,510.209,413.842,508,413.842z"/>
	<path style="fill:#4A575E;" d="M334.685,369.373c-4.143,0-7.5-3.358-7.5-7.5V347.43c0-4.142,3.357-7.5,7.5-7.5s7.5,3.358,7.5,7.5
		v14.443C342.185,366.015,338.827,369.373,334.685,369.373z"/>
	<path style="fill:#4A575E;" d="M366.105,369.373c-4.143,0-7.5-3.358-7.5-7.5V347.43c0-4.142,3.357-7.5,7.5-7.5s7.5,3.358,7.5,7.5
		v14.443C373.605,366.015,370.248,369.373,366.105,369.373z"/>
	<path style="fill:#4A575E;" d="M397.525,387.942c-4.143,0-7.5-3.358-7.5-7.5V347.43c0-4.142,3.357-7.5,7.5-7.5s7.5,3.358,7.5,7.5
		v33.013C405.025,384.584,401.668,387.942,397.525,387.942z"/>
	<path style="fill:#4A575E;" d="M428.946,369.373c-4.143,0-7.5-3.358-7.5-7.5V347.43c0-4.142,3.357-7.5,7.5-7.5s7.5,3.358,7.5,7.5
		v14.443C436.446,366.015,433.089,369.373,428.946,369.373z"/>
	<path style="fill:#4A575E;" d="M460.366,369.373c-4.143,0-7.5-3.358-7.5-7.5V347.43c0-4.142,3.357-7.5,7.5-7.5s7.5,3.358,7.5,7.5
		v14.443C467.866,366.015,464.509,369.373,460.366,369.373z"/>
</g>
<path style="fill:#51E3F0;" d="M309.175,419H72.084c-2.202,0-3.99-1.78-4-3.982l-0.088-19.899c-0.003-0.579,0.12-1.151,0.361-1.678
	l25.77-56.497c4.755-10.425,15.148-17.113,26.593-17.113h25.393c29.889,0,56.206-19.718,64.642-48.433l15.82-53.853
	c2.466-8.395,10.16-14.159,18.898-14.159h63.703c2.209,0,4,1.791,4,4V415C313.175,417.209,311.384,419,309.175,419z"/>
<path style="fill:#54D2EF;" d="M281.926,203.386V419h27.249c2.209,0,4-1.791,4-4V207.386c0-2.209-1.791-4-4-4H281.926z"/>
<g>
</g>
<g>
</g>
<g>
</g>
<g>
</g>
<g>
</g>
<g>
</g>
<g>
</g>
<g>
</g>
<g>
</g>
<g>
</g>
<g>
</g>
<g>
</g>
<g>
</g>
<g>
</g>
<g>
</g>
</svg>
