<?xml version="1.0" encoding="iso-8859-1"?>
<!-- Generator: Adobe Illustrator 19.0.0, SVG Export Plug-In . SVG Version: 6.00 Build 0)  -->
<svg version="1.1" id="Capa_1" xmlns="http://www.w3.org/2000/svg" xmlns:xlink="http://www.w3.org/1999/xlink" x="0px" y="0px"
	 viewBox="0 0 512.03 512.03" style="enable-background:new 0 0 512.03 512.03;" xml:space="preserve">
<g>
	<path style="fill:#FFDB6F;" d="M72.087,154.614c9.518,0.052,17.184,7.795,17.141,17.313c-0.052,9.518-7.795,17.184-17.313,17.141
		c-9.518-0.052-17.184-7.795-17.141-17.313C54.877,162.263,62.594,154.622,72.087,154.614z"/>
	<circle style="fill:#FFDB6F;" cx="343.414" cy="21.534" r="21.534"/>
</g>
<polygon style="fill:#B5B5B5;" points="270.199,245.487 270.199,279.941 252.972,279.941 235.745,279.941 235.745,245.487 "/>
<path style="fill:#454545;" d="M287.426,228.26v17.227h-68.909V228.26c0.069-19.002,15.453-34.385,34.454-34.454
	c19.002-0.026,34.428,15.367,34.454,34.368C287.426,228.2,287.426,228.234,287.426,228.26z"/>
<path style="fill:#62BEFF;" d="M150.04,13.351L98.014,64.688l-0.086-0.086C83.844,50.148,84.146,27.004,98.599,12.92
	c14.195-13.825,36.814-13.825,51.01,0L150.04,13.351z"/>
<polygon style="fill:#454545;" points="382.176,262.714 364.948,279.941 347.721,297.169 313.267,262.714 347.721,228.26 "/>
<path style="fill:#B5B5B5;" d="M287.426,245.487V228.26c0.034-18.993-15.341-34.42-34.334-34.454
	c-7.063-0.009-13.963,2.153-19.76,6.202l-23.257-23.257l51.94-51.423l51.251,51.251l43.068,43.068l-8.614,8.614l-34.454,34.454
	l-8.614,8.614l-25.841-25.841H287.426z"/>
<polygon style="fill:#D3D3D3;" points="163.477,0.086 274.764,112.752 262.016,125.328 261.585,124.897 209.904,176.578 
	210.076,176.751 196.811,189.843 85.438,77.178 98.014,64.688 150.04,13.351 "/>
<g>
	
		<rect x="309.698" y="159.319" transform="matrix(-0.7071 0.7071 -0.7071 -0.7071 668.2256 59.077)" style="fill:#454545;" width="24.359" height="17.227"/>
	
		<rect x="326.179" y="133.233" transform="matrix(-0.7071 0.7071 -0.7071 -0.7071 687.2673 42.6881)" style="fill:#454545;" width="17.227" height="60.897"/>
</g>
<path style="fill:#B5B5B5;" d="M382.176,305.782c-2.283,0-4.479-0.904-6.09-2.524l-17.227-17.227l12.18-12.18l11.137,11.137
	l2.524-2.524l12.18,12.18l-8.614,8.614C386.646,304.878,384.458,305.782,382.176,305.782z"/>
<path style="fill:#454545;" d="M270.199,288.555h-34.454c-4.755,0-8.614-3.859-8.614-8.614v-34.454h17.227v25.841h17.227v-25.841
	h17.227v34.454C278.813,284.696,274.954,288.555,270.199,288.555z"/>
<rect x="244.358" y="211.033" style="fill:#FFFFFF;" width="17.227" height="17.227"/>
<g>
	
		<rect x="52.626" y="385.508" transform="matrix(-0.4406 0.8977 -0.8977 -0.4406 612.7468 406.4056)" style="fill:#454545;" width="254.246" height="17.219"/>
	
		<rect x="317.57" y="266.969" transform="matrix(-0.8978 0.4404 -0.4404 -0.8978 792.5818 604.2588)" style="fill:#454545;" width="17.219" height="254.247"/>
	<rect x="244.358" y="279.941" style="fill:#454545;" width="17.227" height="228.26"/>
	<path style="fill:#454545;" d="M252.972,443.6c-0.922,0-1.843-0.146-2.722-0.439l-77.522-25.841l5.444-16.366l74.8,24.954
		l74.8-24.936l5.444,16.366l-77.522,25.841C254.807,443.462,253.894,443.608,252.972,443.6z"/>
</g>
<g>
	<polygon style="fill:#62BEFF;" points="36.685,309.443 19.458,309.357 19.716,274.859 36.943,275.032 	"/>
	
		<rect x="19.547" y="274.968" transform="matrix(-0.005 1 -1 -0.005 320.4926 265.4962)" style="fill:#62BEFF;" width="17.227" height="34.455"/>
</g>
<g>
	
		<rect x="481.226" y="115.237" transform="matrix(-0.7071 0.7071 -0.7071 -0.7071 930.6153 -118.4517)" style="fill:#F9B544;" width="17.227" height="36.547"/>
	
		<rect x="471.566" y="124.891" transform="matrix(-0.7071 0.7071 -0.7071 -0.7071 930.611 -118.4621)" style="fill:#F9B544;" width="36.547" height="17.227"/>
	<rect x="3.178" y="8.614" style="fill:#F9B544;" width="17.227" height="17.227"/>
</g>
<g>
	
		<rect x="131.766" y="241.094" transform="matrix(-0.005 1 -1 -0.005 390.7852 110.5783)" style="fill:#00448F;" width="17.227" height="17.227"/>
	<rect x="451.11" style="fill:#00448F;" width="17.227" height="17.227"/>
</g>
<rect x="451.11" y="258.407" style="fill:#62BEFF;" width="17.227" height="17.227"/>
<g>
</g>
<g>
</g>
<g>
</g>
<g>
</g>
<g>
</g>
<g>
</g>
<g>
</g>
<g>
</g>
<g>
</g>
<g>
</g>
<g>
</g>
<g>
</g>
<g>
</g>
<g>
</g>
<g>
</g>
</svg>
